<?xml version="1.0" encoding="UTF-8"?>
<svg version="1.1" xmlns="http://www.w3.org/2000/svg" width="500" height="500">
<path d="M0 0 C0.9711676 0.00182281 1.94233521 0.00364563 2.94293213 0.00552368 C16.9450203 0.04978572 30.56114275 0.4637823 44.3125 3.3125 C45.16150879 3.47347168 46.01051758 3.63444336 46.88525391 3.80029297 C87.23485032 11.49472965 125.82446055 28.82179193 157.3125 55.3125 C157.8192627 55.73047852 158.32602539 56.14845703 158.84814453 56.57910156 C172.20224415 67.59790744 184.81379863 79.49742185 195.3125 93.3125 C195.72918945 93.85277832 196.14587891 94.39305664 196.57519531 94.94970703 C204.25814457 104.94426575 211.01827934 115.394519 217.3125 126.3125 C217.73917969 127.04919922 218.16585938 127.78589844 218.60546875 128.54492188 C236.75870377 160.29911914 248.22435986 198.35419811 248.55078125 235.0859375 C248.56052979 235.99933395 248.57027832 236.91273041 248.58032227 237.85380554 C248.75115677 258.01195677 248.57563321 277.51640099 244.3125 297.3125 C244.12526367 298.20533691 243.93802734 299.09817383 243.74511719 300.01806641 C233.82611202 346.09261634 210.87154491 387.45843176 178.3125 421.3125 C177.60843018 422.04944092 177.60843018 422.04944092 176.89013672 422.80126953 C170.43377473 429.52900225 163.64761369 435.56498626 156.3125 441.3125 C155.35085938 442.09109375 154.38921875 442.8696875 153.3984375 443.671875 C110.01452506 478.15933958 55.753225 495.83993518 0.625 495.625 C-0.3461676 495.62317719 -1.31733521 495.62135437 -2.31793213 495.61947632 C-16.3200203 495.57521428 -29.93614275 495.1612177 -43.6875 492.3125 C-44.53650879 492.15152832 -45.38551758 491.99055664 -46.26025391 491.82470703 C-86.60985032 484.13027035 -125.19946055 466.80320807 -156.6875 440.3125 C-157.44764404 439.68553223 -157.44764404 439.68553223 -158.22314453 439.04589844 C-171.57724415 428.02709256 -184.18879863 416.12757815 -194.6875 402.3125 C-195.10418945 401.77222168 -195.52087891 401.23194336 -195.95019531 400.67529297 C-203.63314457 390.68073425 -210.39327934 380.230481 -216.6875 369.3125 C-217.11417969 368.57580078 -217.54085937 367.83910156 -217.98046875 367.08007812 C-236.13370377 335.32588086 -247.59935986 297.27080189 -247.92578125 260.5390625 C-247.93552979 259.62566605 -247.94527832 258.71226959 -247.95532227 257.77119446 C-248.12615677 237.61304323 -247.95063321 218.10859901 -243.6875 198.3125 C-243.50026367 197.41966309 -243.31302734 196.52682617 -243.12011719 195.60693359 C-233.20111202 149.53238366 -210.24654491 108.16656824 -177.6875 74.3125 C-176.98343018 73.57555908 -176.98343018 73.57555908 -176.26513672 72.82373047 C-169.80877473 66.09599775 -163.02261369 60.06001374 -155.6875 54.3125 C-154.24503906 53.14460938 -154.24503906 53.14460938 -152.7734375 51.953125 C-109.38952506 17.46566042 -55.128225 -0.21493518 0 0 Z " fill="#41BCBE" transform="translate(248.6875,0.6875)"/>
<path d="M0 0 C4.02803793 1.77774562 7.7749226 3.94921006 11.5625 6.1875 C12.65457764 6.8160791 13.74665527 7.4446582 14.87182617 8.09228516 C18.25722437 10.04593341 21.62940685 12.02094068 25 14 C26.99430077 15.16099989 28.98907362 16.32118935 30.984375 17.48046875 C34.9170951 19.76871057 38.84439777 22.06596115 42.76953125 24.3671875 C49.48461454 28.29477655 56.24063733 32.14940649 63 36 C72.06606314 41.16668954 81.11181934 46.36636888 90.125 51.625 C91.07761719 52.18058594 92.03023437 52.73617187 93.01171875 53.30859375 C94.80578119 54.35746951 96.59786715 55.4097353 98.38769531 56.46582031 C100.18177149 57.51946281 101.98370411 58.55980643 103.79199219 59.58886719 C104.68305664 60.10352539 105.57412109 60.61818359 106.4921875 61.1484375 C107.28737793 61.60138184 108.08256836 62.05432617 108.90185547 62.52099609 C111.96297248 64.67880932 113.76595678 66.65861668 114.42132568 70.4147644 C114.44180969 71.31155914 114.4622937 72.20835388 114.48339844 73.13232422 C114.52663239 74.66444046 114.52663239 74.66444046 114.57073975 76.22750854 C114.58348938 77.3254776 114.59623901 78.42344666 114.609375 79.5546875 C114.63502533 81.25614426 114.63502533 81.25614426 114.66119385 82.99197388 C114.68952088 85.39088563 114.70913679 87.78991373 114.72070312 90.18896484 C114.74984829 93.85591265 114.84291233 97.51782899 114.9375 101.18359375 C114.95708941 103.51559507 114.97284112 105.84763243 114.984375 108.1796875 C115.02141541 109.27360809 115.05845581 110.36752869 115.09661865 111.49459839 C115.03127735 118.95322753 115.03127735 118.95322753 112.02374268 122.00595093 C109.7403118 123.54302074 107.47561791 124.80342381 105 126 C104.11828125 126.55429688 103.2365625 127.10859375 102.328125 127.6796875 C101.64234375 128.07414063 100.9565625 128.46859375 100.25 128.875 C99.55390625 129.28492188 98.8578125 129.69484375 98.140625 130.1171875 C95.60556659 131.16266779 93.71778092 131.23110382 91 131 C90 130 90 130 89.88215637 128.14254761 C89.88470932 127.3309317 89.88726227 126.5193158 89.88989258 125.68310547 C89.88931351 124.7647995 89.88873444 123.84649353 89.88813782 122.90036011 C89.89024765 121.89941315 89.89235748 120.89846619 89.89453125 119.8671875 C89.88106883 117.76040647 89.86604452 115.65363494 89.84960938 113.546875 C89.82681516 110.2154876 89.81246189 106.88516567 89.82495117 103.55371094 C89.83378752 100.34492173 89.80480799 97.13825695 89.76953125 93.9296875 C89.78787773 92.44648514 89.78787773 92.44648514 89.80659485 90.93331909 C89.70401839 85.0497611 88.88296856 81.6053574 84.65769958 77.39093018 C82.34581558 75.45109182 80.01789552 73.94262805 77.3515625 72.52734375 C76.27632324 71.94525146 75.20108398 71.36315918 74.09326172 70.76342773 C72.37647217 69.85959351 72.37647217 69.85959351 70.625 68.9375 C68.79859239 67.95418077 66.97530016 66.96525506 65.1522522 65.97572327 C63.9126471 65.30294945 62.6722243 64.63168014 61.43099976 63.9618988 C55.49977968 60.75434983 49.68156531 57.36505723 43.875 53.9375 C32.56801043 47.28888802 21.16253262 40.81957085 9.66845703 34.49951172 C7.94583182 33.53150037 6.24149898 32.52982963 4.56201172 31.48876953 C0.61657525 29.08642961 -2.94370193 27.04151942 -7.73925781 27.39013672 C-13.24375743 28.87504385 -18.0339505 32.1386326 -22.875 35.0625 C-24.1187629 35.79601803 -25.36357449 36.52776049 -26.609375 37.2578125 C-29.16864952 38.76026298 -31.722551 40.27126364 -34.27246094 41.78955078 C-39.8146685 45.08451637 -45.40986448 48.28728835 -51 51.5 C-53.1199008 52.72507159 -55.2396913 53.95033405 -57.359375 55.17578125 C-62.11119912 57.91760382 -66.87275183 60.64170517 -71.640625 63.35546875 C-72.27794556 63.71847076 -72.91526611 64.08147278 -73.57189941 64.45547485 C-76.65964792 66.21398097 -79.74862611 67.97025563 -82.83984375 69.72265625 C-83.94972656 70.35429688 -85.05960938 70.9859375 -86.203125 71.63671875 C-87.66733887 72.46755981 -87.66733887 72.46755981 -89.16113281 73.31518555 C-90.09795898 73.87117432 -91.03478516 74.42716309 -92 75 C-93.04768555 75.60561768 -94.09537109 76.21123535 -95.17480469 76.83520508 C-98.54483207 79.41747545 -99.46619754 81.04504308 -101 85 C-101.42050809 88.25891871 -101.4102319 91.48316906 -101.38818359 94.765625 C-101.39344055 95.73222046 -101.39869751 96.69881592 -101.40411377 97.69470215 C-101.41728411 100.87996731 -101.40858599 104.06473002 -101.3984375 107.25 C-101.40045908 109.46907649 -101.40337122 111.68815234 -101.40713501 113.90722656 C-101.41155435 118.55410091 -101.40513969 123.20080206 -101.39111328 127.84765625 C-101.37402181 133.79955838 -101.38386505 139.75105465 -101.40183067 145.70294189 C-101.41267892 150.28404795 -101.40921735 154.86505802 -101.4014473 159.44616699 C-101.39944818 161.6405848 -101.40189442 163.83501136 -101.40888596 166.02941895 C-101.41651737 169.09797197 -101.40487206 172.16587062 -101.38818359 175.234375 C-101.39425629 176.13845093 -101.40032898 177.04252686 -101.40658569 177.97399902 C-101.35475223 183.12698591 -100.66921635 186.45167345 -98 191 C-98 191.66 -98 192.32 -98 193 C-97.4524707 193.26844727 -96.90494141 193.53689453 -96.34082031 193.81347656 C-91.40228616 196.31673855 -86.59011249 199.06263097 -81.75 201.75 C-81.15009247 202.08291046 -80.55018494 202.41582092 -79.93209839 202.75881958 C-70.61079658 207.93697786 -61.3694734 213.23894978 -52.17114258 218.63305664 C-44.7338937 222.99329102 -37.28058233 227.32409211 -29.80343628 231.61550903 C-28.57485263 232.3213373 -27.34706725 233.02855718 -26.12014771 233.73727417 C-22.43495776 235.86526823 -18.73069588 237.95286661 -15 240 C-13.98897217 240.57161865 -13.98897217 240.57161865 -12.95751953 241.15478516 C-8.19323947 243.57311132 -4.01220853 243.44662534 1 242 C4.79000743 240.26803506 8.27692855 238.13567219 11.8125 235.9375 C13.94303299 234.6533249 16.07458579 233.37084057 18.20703125 232.08984375 C19.31643066 231.41808105 20.42583008 230.74631836 21.56884766 230.05419922 C26.74428874 226.95571044 31.98669591 223.9781225 37.2333374 221.00265503 C40.17562209 219.33278522 43.11332855 217.65491374 46.05078125 215.9765625 C46.62799927 215.64677902 47.20521729 215.31699554 47.79992676 214.97721863 C53.94204253 211.46537019 60.06958457 207.92881721 66.1875 204.375 C67.14849609 203.81941406 68.10949219 203.26382813 69.09960938 202.69140625 C73.43601298 200.16516687 77.74628995 197.59618394 81.98828125 194.9140625 C83.04269409 194.25204834 83.04269409 194.25204834 84.1184082 193.57666016 C86.53143627 191.55468854 87.70259932 189.88128645 89 187 C89.29406398 183.4505166 89.29406398 183.4505166 89.0546875 179.57421875 C89.02822846 178.12309882 89.00488922 176.67191927 88.984375 175.22070312 C88.93925347 172.95310079 88.87528814 170.69300973 88.75683594 168.42797852 C88.51120435 163.35546496 88.5277079 158.89296631 90 154 C93.94175803 150.18556018 97.97583977 148.21873905 103 146 C104.36565735 145.16432779 105.72288812 144.31431701 107.0625 143.4375 C110.27558967 141.86513697 110.79377554 141.95883894 114 143 C114.06959844 150.60622012 114.12286116 158.2124071 114.15543652 165.81887341 C114.17107343 169.35112466 114.19227501 172.88315759 114.22631836 176.4152832 C114.26523603 180.47869937 114.27972547 184.54188721 114.29296875 188.60546875 C114.30845261 189.8702153 114.32393646 191.13496185 114.33988953 192.43803406 C114.34022942 194.20930412 114.34022942 194.20930412 114.34057617 196.01635742 C114.35056892 197.57189583 114.35056892 197.57189583 114.36076355 199.15885925 C113.9384833 202.48446582 112.98236192 204.31619727 111 207 C108.7011653 208.60473493 106.50482243 209.96697335 104.0625 211.3125 C103.33232666 211.72854492 102.60215332 212.14458984 101.84985352 212.57324219 C100.18310624 213.52160768 98.51319837 214.46443167 96.84082031 215.40283203 C93.13922917 217.48394317 89.45368808 219.59269942 85.76774597 221.70137024 C85.18946548 222.03219101 84.611185 222.36301178 84.01538086 222.70385742 C83.42868622 223.03952728 82.84199158 223.37519714 82.23751831 223.72103882 C80.42028752 224.75983933 78.6020179 225.79679905 76.78344727 226.83325195 C69.16279672 231.17803743 61.56977526 235.56695633 54 240 C41.84116124 247.11851819 29.62605084 254.13987838 17.35839844 261.06933594 C15.00310124 262.42334075 12.68167162 263.79860052 10.36816406 265.21972656 C-2.81814371 273.24586355 -2.81814371 273.24586355 -9 272 C-13.44660365 270.22703081 -17.46033721 267.89141703 -21.5625 265.4375 C-22.75785052 264.74470017 -23.95440673 264.05397688 -25.15209961 263.36523438 C-28.202203 261.6043799 -31.2362049 259.81763606 -34.26660156 258.02313232 C-36.89794569 256.46999072 -39.54282108 254.94045117 -42.1875 253.41015625 C-46.12547885 251.12761897 -50.05593979 248.83292784 -53.98046875 246.52734375 C-60.26049042 242.84077462 -66.56532731 239.19803061 -72.875 235.5625 C-73.94371338 234.94640869 -75.01242676 234.33031738 -76.11352539 233.69555664 C-80.58051497 231.12101271 -85.04826787 228.54779623 -89.51660156 225.97558594 C-91.87346291 224.61884742 -94.23006924 223.26166779 -96.58642578 221.90405273 C-98.79006869 220.63453881 -100.99413955 219.36576732 -103.19873047 218.09790039 C-105.19114288 216.94992777 -107.18101453 215.7975309 -109.16796875 214.64013672 C-111.0565273 213.54640083 -112.95512843 212.46982554 -114.86328125 211.41064453 C-115.75402344 210.9051709 -116.64476562 210.39969727 -117.5625 209.87890625 C-118.34753906 209.44263916 -119.13257813 209.00637207 -119.94140625 208.55688477 C-123.20402829 206.08941077 -124.80717196 203.36591093 -125.38031673 199.30599976 C-125.38274663 198.32894073 -125.38517653 197.35188171 -125.38768005 196.34521484 C-125.39758469 195.21807068 -125.40748932 194.09092651 -125.41769409 192.92962646 C-125.41319244 191.70245911 -125.4086908 190.47529175 -125.40405273 189.2109375 C-125.41091599 187.91126038 -125.41777924 186.61158325 -125.42485046 185.27252197 C-125.44277308 181.71467284 -125.44161545 178.15707045 -125.43590808 174.59918976 C-125.43281537 171.62693955 -125.43890947 168.65473668 -125.44494683 165.68249321 C-125.45898704 158.67045012 -125.45743457 151.65852887 -125.44604492 144.64648438 C-125.43455958 137.41579375 -125.44864723 130.18547386 -125.4754414 122.95483208 C-125.49759944 116.74236376 -125.5042357 110.53001181 -125.49836498 104.31750679 C-125.49499496 100.60894007 -125.49741338 96.90061108 -125.51461601 93.19207764 C-125.5329586 89.05750037 -125.51889716 84.92364465 -125.50170898 80.7890625 C-125.51137695 79.56189514 -125.52104492 78.33472778 -125.53100586 77.07037354 C-125.45869572 68.78251288 -125.45869572 68.78251288 -123.13188171 64.81307983 C-120.66845821 62.71803702 -118.22717084 61.11212097 -115.3984375 59.5390625 C-114.28194824 58.91056396 -113.16545898 58.28206543 -112.01513672 57.63452148 C-110.80178209 56.96463701 -109.58840252 56.29479771 -108.375 55.625 C-107.1127888 54.9179164 -105.85124236 54.20964494 -104.59033203 53.50024414 C-101.99587379 52.04120798 -99.39910164 50.5864231 -96.80078125 49.13427734 C-91.12746886 45.95658375 -85.50194011 42.69638225 -79.875 39.4375 C-77.72666585 38.19643566 -75.57822825 36.95555038 -73.4296875 35.71484375 C-72.36975586 35.10237793 -71.30982422 34.48991211 -70.21777344 33.85888672 C-63.74495479 30.11958162 -57.26935421 26.38509361 -50.79345703 22.65112305 C-45.73071954 19.73149577 -40.66925949 16.80972417 -35.61242676 13.87988281 C-33.23187827 12.50081969 -30.85058694 11.12304215 -28.46923828 9.74536133 C-26.7951735 8.77615342 -25.12218088 7.80509435 -23.44921875 6.83398438 C-22.42957031 6.24423828 -21.40992188 5.65449219 -20.359375 5.046875 C-19.46702148 4.52963867 -18.57466797 4.01240234 -17.65527344 3.47949219 C-11.1005422 -0.17273945 -7.34758182 -2.07540222 0 0 Z " fill="#FDFEFE" transform="translate(272,51)"/>
<path d="M0 0 C6.60044547 2.50331856 12.70913236 5.96147727 18.875 9.375 C19.93203125 9.93960938 20.9890625 10.50421875 22.078125 11.0859375 C23.08101563 11.6428125 24.08390625 12.1996875 25.1171875 12.7734375 C26.48786377 13.52246338 26.48786377 13.52246338 27.88623047 14.28662109 C30 16 30 16 30.80517578 18.70166016 C30.86946777 19.4601123 30.93375977 20.21856445 31 21 C28.02808271 23.04451048 25.02520739 25.03522191 22 27 C21.22269531 27.51046875 20.44539063 28.0209375 19.64453125 28.546875 C15.86970803 30.85984758 13.76387944 32.01273132 9.25 31.9375 C6 31 6 31 3.5625 29.9375 C-1.00933012 28.26487922 -5.00664008 28.19824413 -9.49291992 30.00268555 C-12.17377855 31.38110274 -14.77582778 32.84832028 -17.375 34.375 C-18.27605469 34.88289063 -19.17710937 35.39078125 -20.10546875 35.9140625 C-24.85062604 38.55616305 -24.85062604 38.55616305 -29 42 C-29 42.99 -29 43.98 -29 45 C-25.67976386 47.00177469 -22.34186875 48.97208854 -19 50.9375 C-18.06542969 51.50146484 -17.13085938 52.06542969 -16.16796875 52.64648438 C-10.6720492 55.8556402 -6.43071128 58.06812194 0 58 C3.08122243 57.1375593 3.08122243 57.1375593 6 55.4375 C6.56831543 55.13521484 7.13663086 54.83292969 7.72216797 54.52148438 C9.83371566 53.37893087 11.91721273 52.1942187 14 51 C14.92071289 50.47293457 15.84142578 49.94586914 16.79003906 49.40283203 C21.90048037 46.46387537 26.99287994 43.49560115 32.0703125 40.5 C33.04000977 39.9328125 34.00970703 39.365625 35.00878906 38.78125 C37.09169426 37.54089118 39.15502829 36.26731966 41.20214844 34.96875 C42.24661133 34.3190625 43.29107422 33.669375 44.3671875 33 C45.3041748 32.401875 46.24116211 31.80375 47.20654297 31.1875 C50.67398678 29.71348788 52.40908626 29.98366387 56 31 C58.1940918 31.98388672 58.1940918 31.98388672 60.19921875 33.1796875 C60.93333984 33.61410156 61.66746094 34.04851562 62.42382812 34.49609375 C63.17083984 34.95113281 63.91785156 35.40617187 64.6875 35.875 C65.44611328 36.32230469 66.20472656 36.76960938 66.98632812 37.23046875 C71.09507725 39.68919064 71.09507725 39.68919064 73 41 C73.52260406 41.34706497 74.04520813 41.69412994 74.58364868 42.05171204 C76.86396427 45.18844185 76.45932199 48.67657843 76.4675293 52.4152832 C76.48081772 53.27415131 76.49410614 54.13301941 76.50779724 55.01791382 C76.54654529 57.86229633 76.56209554 60.70616774 76.57421875 63.55078125 C76.58893557 65.52752297 76.60381511 67.50426349 76.61885071 69.48100281 C76.64586095 73.62791207 76.65939485 77.77464175 76.66577148 81.92163086 C76.6766375 87.23196461 76.73832494 92.54039643 76.8124876 97.85017109 C76.86089444 101.9346303 76.87329945 106.01863193 76.87583351 110.1033535 C76.88306197 112.06062316 76.90352602 114.01789081 76.93753624 115.97487831 C77.18235903 131.22933206 77.18235903 131.22933206 74.3722229 135.43771362 C72.30210372 137.03875421 70.41942617 138.023396 68 139 C66.97777344 139.63615234 65.95554687 140.27230469 64.90234375 140.92773438 C63.92394531 141.47751953 62.94554687 142.02730469 61.9375 142.59375 C60.82262207 143.22474609 59.70774414 143.85574219 58.55908203 144.50585938 C57.97886292 144.83094482 57.3986438 145.15603027 56.80084229 145.4909668 C53.69176544 147.23301927 50.59293394 148.99317774 47.4921875 150.75 C46.86359833 151.1054187 46.23500916 151.4608374 45.58737183 151.82702637 C39.40043566 155.32867804 33.26022466 158.908625 27.125 162.5 C26.13685303 163.07443848 25.14870605 163.64887695 24.13061523 164.24072266 C19.96257101 166.66521346 15.80938754 169.10146094 11.71484375 171.6484375 C11.08497559 172.03193359 10.45510742 172.41542969 9.80615234 172.81054688 C8.2281085 173.77390044 6.66211655 174.75692792 5.09765625 175.7421875 C0.00047448 177.81191326 -4.32612765 178.08025178 -9.48852539 175.99462891 C-12.24936468 174.55289505 -14.90277078 172.99566075 -17.5625 171.375 C-18.55773682 170.79032959 -19.55297363 170.20565918 -20.57836914 169.60327148 C-22.67578966 168.36933043 -24.76842441 167.12722222 -26.85644531 165.87744141 C-30.87325067 163.47846399 -34.92006876 161.13319224 -38.96777344 158.78686523 C-41.94419977 157.05860979 -44.91417028 155.31971224 -47.8828125 153.578125 C-52.15946236 151.07126695 -56.44710114 148.58450951 -60.7421875 146.109375 C-61.84183838 145.47378662 -62.94148926 144.83819824 -64.07446289 144.18334961 C-66.18874019 142.9617778 -68.30503059 141.74368175 -70.42358398 140.52954102 C-71.37305908 139.97967529 -72.32253418 139.42980957 -73.30078125 138.86328125 C-74.13778564 138.38157471 -74.97479004 137.89986816 -75.8371582 137.40356445 C-77.99773515 136.00146976 -79.43674744 135.04382709 -81 133 C-81.36076355 130.13362122 -81.36076355 130.13362122 -81.34057617 126.60083008 C-81.34123329 125.63456947 -81.34123329 125.63456947 -81.34190369 124.64878845 C-81.33981559 122.52205979 -81.31648513 120.39612198 -81.29296875 118.26953125 C-81.28737283 116.79408702 -81.28310271 115.31863722 -81.28010559 113.84318542 C-81.26865637 109.96160466 -81.23918887 106.08036117 -81.20599365 102.19891357 C-81.17529424 98.23747317 -81.16160055 94.27597822 -81.14648438 90.31445312 C-81.11431894 82.54281506 -81.06312205 74.77145481 -81 67 C-77.05031631 66.08585352 -75.3723929 65.87509746 -71.86328125 68.01953125 C-71.12142578 68.46490234 -70.37957031 68.91027344 -69.61523438 69.36914062 C-68.85533203 69.84544922 -68.09542969 70.32175781 -67.3125 70.8125 C-66.15524414 71.50956055 -66.15524414 71.50956055 -64.97460938 72.22070312 C-59.36382185 75.63617815 -59.36382185 75.63617815 -57 78 C-56.81488645 81.03540934 -56.74735856 83.98764825 -56.76171875 87.0234375 C-56.74629912 88.86719486 -56.72999549 90.710945 -56.71289062 92.5546875 C-56.6964274 95.46695842 -56.68750899 98.37870196 -56.69458008 101.29101562 C-56.69719701 104.09826628 -56.6691 106.9039022 -56.63671875 109.7109375 C-56.64692551 110.5808432 -56.65713226 111.4507489 -56.66764832 112.34701538 C-56.62222234 117.38626405 -56.62222234 117.38626405 -53.7590332 121.40478516 C-52.84855225 121.93120605 -51.93807129 122.45762695 -51 123 C-49.83887695 123.72123047 -49.83887695 123.72123047 -48.65429688 124.45703125 C-47.85056641 124.90433594 -47.04683594 125.35164063 -46.21875 125.8125 C-45.30424072 126.32530518 -44.38973145 126.83811035 -43.44750977 127.36645508 C-41.98849243 128.17505981 -41.98849243 128.17505981 -40.5 129 C-34.32221263 132.43725403 -28.15854666 135.87891903 -22.09765625 139.51953125 C-20.69966797 140.35000977 -20.69966797 140.35000977 -19.2734375 141.19726562 C-17.50872262 142.24872039 -15.75169356 143.3132194 -14.00390625 144.39257812 C-8.66438956 147.54580233 -5.21179578 148.82271217 1 148 C4.30380257 146.88463995 4.30380257 146.88463995 7.4375 145.125 C8.02893799 144.81401367 8.62037598 144.50302734 9.22973633 144.18261719 C14.63414205 141.29895714 19.99089215 138.26675108 25.17190552 134.99803162 C29.02107811 132.59514408 32.67822955 130.67298806 36.97509766 129.19506836 C42.51523071 127.08188732 47.35562652 124.82579502 51 120 C53.99063061 110.64147313 52.87737369 100.1905786 52.30462646 90.50384521 C52.10872216 86.83862787 52.0231777 83.17091729 51.92773438 79.50195312 C51.72511491 72.32781575 51.40188889 65.16603523 51 58 C47.8408323 59.80294857 44.68168358 61.60593039 41.52258301 63.40899658 C39.64330009 64.48160001 37.76400049 65.55417421 35.88464355 66.62664795 C29.5832842 70.22330771 23.28521411 73.82468843 17.015625 77.4765625 C15.71202026 78.2358606 15.71202026 78.2358606 14.38208008 79.01049805 C12.78671815 79.94177643 11.19273749 80.87542627 9.6003418 81.81176758 C4.0326929 85.06248016 -0.484855 87.02676166 -7 86 C-10.67490749 84.54063982 -14.02493202 82.61226608 -17.4375 80.625 C-18.89591309 79.80189331 -18.89591309 79.80189331 -20.38378906 78.9621582 C-23.26740365 77.32727287 -26.13586566 75.66873214 -29 74 C-29.74459473 73.5683252 -30.48918945 73.13665039 -31.25634766 72.69189453 C-34.60608787 70.74541305 -37.94166853 68.77658332 -41.26953125 66.79296875 C-45.07938861 64.5297795 -48.91687013 62.3163098 -52.76171875 60.11328125 C-53.35242157 59.77443405 -53.94312439 59.43558685 -54.55172729 59.08647156 C-56.9368735 57.71853971 -59.32210731 56.35081026 -61.71081543 54.98910522 C-63.38041074 54.0371796 -65.04767554 53.08117 -66.71484375 52.125 C-67.68542725 51.57070312 -68.65601074 51.01640625 -69.65600586 50.4453125 C-72 49 -72 49 -74 47 C-74.625 43.75 -74.625 43.75 -74 40 C-68.82374808 34.59041541 -61.25203374 31.1234972 -54.79891968 27.50793457 C-51.69962889 25.77140216 -48.61051997 24.01687731 -45.51953125 22.265625 C-44.89238724 21.9110321 -44.26524323 21.55643921 -43.61909485 21.19110107 C-36.28068337 17.03772276 -29.00524269 12.77794572 -21.72851562 8.51757812 C-19.9408826 7.47112815 -18.15237805 6.4261648 -16.36279297 5.38305664 C-14.87237044 4.51064048 -13.38634842 3.63062097 -11.90673828 2.73999023 C-7.6283918 0.19673218 -5.01599458 -0.62699932 0 0 Z " fill="#F4F6FB" transform="translate(269,98)"/>
<path d="M0 0 C3.031875 -0.061875 6.06375 -0.12375 9.1875 -0.1875 C10.60712036 -0.22846802 10.60712036 -0.22846802 12.05541992 -0.27026367 C16.84628681 -0.31755702 20.14384415 -0.19156787 24 3 C25.50934217 6.01868434 25.17510672 8.67297229 25 12 C24.01 13.485 24.01 13.485 23 15 C23.639375 15.309375 24.27875 15.61875 24.9375 15.9375 C27 17 27 17 28 18 C28.23828125 20.109375 28.23828125 20.109375 28.3125 22.75 C28.34988281 23.61109375 28.38726562 24.4721875 28.42578125 25.359375 C27.8040826 29.21504735 27.09313285 30.53165359 24 33 C19.89860315 33.62357695 15.88611964 33.46726209 11.75 33.3125 C5.93375 33.1578125 5.93375 33.1578125 0 33 C0 22.11 0 11.22 0 0 Z " fill="#FAFDFD" transform="translate(162,351)"/>
<path d="M0 0 C8 0 8 0 10.53125 1.96875 C11.1809375 2.8040625 11.830625 3.639375 12.5 4.5 C13.50546875 5.75296875 13.50546875 5.75296875 14.53125 7.03125 C15.25828125 8.00578125 15.25828125 8.00578125 16 9 C16.144375 7.700625 16.28875 6.40125 16.4375 5.0625 C16.875 1.125 16.875 1.125 18 0 C19.49738124 -0.0979057 20.99942892 -0.12974864 22.5 -0.125 C23.3146875 -0.12757813 24.129375 -0.13015625 24.96875 -0.1328125 C27 0 27 0 28 1 C28.1002093 3.27947792 28.13081303 5.56207135 28.1328125 7.84375 C28.13424759 8.87018616 28.13424759 8.87018616 28.13571167 9.9173584 C28.1363933 11.36661877 28.13454023 12.81588218 28.13037109 14.26513672 C28.12502252 16.49062928 28.1303166 18.71592001 28.13671875 20.94140625 C28.13605797 22.34635461 28.1347768 23.75130285 28.1328125 25.15625 C28.13168457 26.44337891 28.13055664 27.73050781 28.12939453 29.05664062 C28 32 28 32 27 33 C25.50261876 33.0979057 24.00057108 33.12974864 22.5 33.125 C21.6853125 33.12757813 20.870625 33.13015625 20.03125 33.1328125 C18 33 18 33 17 32 C16.87625 30.4221875 16.87625 30.4221875 16.75 28.8125 C15.81711684 24.07034395 14.27627226 22.44428622 11 19 C10.67 23.62 10.34 28.24 10 33 C6.7 33 3.4 33 0 33 C0 22.11 0 11.22 0 0 Z " fill="#F6FBFC" transform="translate(320,405)"/>
<path d="M0 0 C2.97 0 5.94 0 9 0 C10 1 10 1 10.09765625 3.50390625 C10.08605469 4.51324219 10.07445312 5.52257812 10.0625 6.5625 C10.05347656 7.57441406 10.04445313 8.58632813 10.03515625 9.62890625 C10.02355469 10.41136719 10.01195312 11.19382812 10 12 C12.31 12 14.62 12 17 12 C16.98839844 11.21753906 16.97679687 10.43507813 16.96484375 9.62890625 C16.95582031 8.61699219 16.94679688 7.60507812 16.9375 6.5625 C16.92589844 5.55316406 16.91429687 4.54382813 16.90234375 3.50390625 C17 1 17 1 18 0 C19.49738124 -0.0979057 20.99942892 -0.12974864 22.5 -0.125 C23.3146875 -0.12757813 24.129375 -0.13015625 24.96875 -0.1328125 C27 0 27 0 28 1 C28.0883967 3.3756852 28.11530305 5.72208674 28.09765625 8.09765625 C28.0962413 8.80651474 28.09482635 9.51537323 28.09336853 10.24571228 C28.08775443 12.51801712 28.07519963 14.79022475 28.0625 17.0625 C28.05748681 18.59960796 28.05292359 20.13671745 28.04882812 21.67382812 C28.03778042 25.44925642 28.02050641 29.22461171 28 33 C26.35425434 33.02688151 24.70838587 33.04634123 23.0625 33.0625 C22.14597656 33.07410156 21.22945313 33.08570313 20.28515625 33.09765625 C18 33 18 33 17 32 C16.92794489 30.31391034 16.91613932 28.62499341 16.9375 26.9375 C16.94652344 26.01839844 16.95554687 25.09929687 16.96484375 24.15234375 C16.97644531 23.44207031 16.98804688 22.73179687 17 22 C14.69 22 12.38 22 10 22 C10 25.63 10 29.26 10 33 C6.7 33 3.4 33 0 33 C0 22.11 0 11.22 0 0 Z " fill="#F7FCFC" transform="translate(312,351)"/>
<path d="M0 0 C3.46679688 0.04882812 3.46679688 0.04882812 6.93359375 0.09765625 C6.93359375 4.05765625 6.93359375 8.01765625 6.93359375 12.09765625 C9.57359375 12.09765625 12.21359375 12.09765625 14.93359375 12.09765625 C14.93359375 8.13765625 14.93359375 4.17765625 14.93359375 0.09765625 C18.23359375 0.09765625 21.53359375 0.09765625 24.93359375 0.09765625 C24.93359375 10.98765625 24.93359375 21.87765625 24.93359375 33.09765625 C21.63359375 33.09765625 18.33359375 33.09765625 14.93359375 33.09765625 C14.93359375 29.13765625 14.93359375 25.17765625 14.93359375 21.09765625 C12.29359375 21.09765625 9.65359375 21.09765625 6.93359375 21.09765625 C6.93359375 25.05765625 6.93359375 29.01765625 6.93359375 33.09765625 C3.63359375 33.09765625 0.33359375 33.09765625 -3.06640625 33.09765625 C-3.09106017 28.5586792 -3.10924414 24.01974082 -3.12133789 19.48071289 C-3.12637765 17.93545859 -3.13320945 16.39020909 -3.1418457 14.8449707 C-3.15392701 12.62840596 -3.15963798 10.41190407 -3.1640625 8.1953125 C-3.16922379 7.50051285 -3.17438507 6.8057132 -3.17970276 6.08985901 C-3.17989902 4.42536295 -3.12829754 2.76100126 -3.06640625 1.09765625 C-2.06640625 0.09765625 -2.06640625 0.09765625 0 0 Z " fill="#FCFDFE" transform="translate(221.06640625,404.90234375)"/>
<path d="M0 0 C3.3 0 6.6 0 10 0 C10.33 7.92 10.66 15.84 11 24 C12.98 24 14.96 24 17 24 C17.33 16.08 17.66 8.16 18 0 C20.97 0 23.94 0 27 0 C29.63699938 2.63699938 28.234878 10.20389161 28.25 13.75 C28.270625 14.94367188 28.29125 16.13734375 28.3125 17.3671875 C28.31765625 18.51960938 28.3228125 19.67203125 28.328125 20.859375 C28.34214355 22.44443848 28.34214355 22.44443848 28.35644531 24.06152344 C27.94784081 27.42999178 27.00590336 29.28676922 25 32 C19.72989868 34.94165858 13.85949044 34.52331038 8 34 C3.7882791 32.47506657 2.48013792 31.72020689 0 28 C-0.22705078 25.08911133 -0.22705078 25.08911133 -0.1953125 21.58203125 C-0.18886719 20.32841797 -0.18242187 19.07480469 -0.17578125 17.78320312 C-0.15902344 16.47287109 -0.14226562 15.16253906 -0.125 13.8125 C-0.11496639 12.47722013 -0.1058412 11.14193311 -0.09765625 9.80664062 C-0.07405292 6.53757985 -0.04112594 3.26887972 0 0 Z " fill="#FAFDFD" transform="translate(198,351)"/>
<path d="M0 0 C3.774375 -0.020625 7.54875 -0.04125 11.4375 -0.0625 C12.62915771 -0.071604 13.82081543 -0.08070801 15.04858398 -0.09008789 C16.44572632 -0.09383423 16.44572632 -0.09383423 17.87109375 -0.09765625 C18.82943115 -0.10289307 19.78776855 -0.10812988 20.77514648 -0.11352539 C23 0 23 0 24 1 C24.14115161 3.67058851 24.04247107 6.32432238 24 9 C19.38 9 14.76 9 10 9 C10 9.99 10 10.98 10 12 C13.3 12 16.6 12 20 12 C20 14.97 20 17.94 20 21 C16.7 21 13.4 21 10 21 C10 21.99 10 22.98 10 24 C11.39025391 23.98259766 11.39025391 23.98259766 12.80859375 23.96484375 C14.00613281 23.95582031 15.20367187 23.94679688 16.4375 23.9375 C17.63246094 23.92589844 18.82742188 23.91429687 20.05859375 23.90234375 C23 24 23 24 24 25 C24 27.64 24 30.28 24 33 C16.08 33 8.16 33 0 33 C0 22.11 0 11.22 0 0 Z " fill="#F7FCFC" transform="translate(287,405)"/>
<path d="M0 0 C1.40958984 -0.00193359 1.40958984 -0.00193359 2.84765625 -0.00390625 C3.83636719 -0.00003906 4.82507813 0.00382812 5.84375 0.0078125 C7.32681641 0.00201172 7.32681641 0.00201172 8.83984375 -0.00390625 C9.77957031 -0.00261719 10.71929687 -0.00132812 11.6875 0 C12.55568359 0.00112793 13.42386719 0.00225586 14.31835938 0.00341797 C16.34375 0.1328125 16.34375 0.1328125 17.34375 1.1328125 C17.48490161 3.80340101 17.38622107 6.45713488 17.34375 9.1328125 C15.36375 9.1328125 13.38375 9.1328125 11.34375 9.1328125 C11.34375 14.0828125 11.34375 19.0328125 11.34375 24.1328125 C12.99375 24.1328125 14.64375 24.1328125 16.34375 24.1328125 C17.34375 25.1328125 17.34375 25.1328125 17.34375 33.1328125 C9.75375 33.1328125 2.16375 33.1328125 -5.65625 33.1328125 C-5.65625 25.1328125 -5.65625 25.1328125 -4.65625 24.1328125 C-3.00625 24.1328125 -1.35625 24.1328125 0.34375 24.1328125 C0.34375 19.1828125 0.34375 14.2328125 0.34375 9.1328125 C-1.63625 9.1328125 -3.61625 9.1328125 -5.65625 9.1328125 C-5.75390625 2.98046875 -5.75390625 2.98046875 -5.65625 1.1328125 C-4.03424485 -0.48919265 -2.23601969 0.002905 0 0 Z " fill="#F6FCFC" transform="translate(260.65625,404.8671875)"/>
<path d="M0 0 C0.80179687 0.00451172 1.60359375 0.00902344 2.4296875 0.01367188 C4.41149006 0.02546832 6.39325433 0.04340395 8.375 0.0625 C8.375 3.0325 8.375 6.0025 8.375 9.0625 C2.435 9.5575 2.435 9.5575 -3.625 10.0625 C-3.955 14.6825 -4.285 19.3025 -4.625 24.0625 C-0.335 24.0625 3.955 24.0625 8.375 24.0625 C8.375 27.0325 8.375 30.0025 8.375 33.0625 C5.47815842 33.17079314 2.58538981 33.24993954 -0.3125 33.3125 C-1.12912109 33.34601563 -1.94574219 33.37953125 -2.78710938 33.4140625 C-6.92792007 33.48112016 -9.0524885 33.42096774 -12.64453125 31.171875 C-16.66916818 26.88527946 -15.91722352 22.36751288 -16 16.75 C-16.03738281 15.79931641 -16.07476562 14.84863281 -16.11328125 13.86914062 C-16.2020793 6.80969551 -16.2020793 6.80969551 -13.2265625 2.95703125 C-8.78120744 -0.28020179 -5.34453318 -0.05639524 0 0 Z " fill="#F6FBFC" transform="translate(294.625,350.9375)"/>
<path d="M0 0 C7.26 0 14.52 0 22 0 C22 2.97 22 5.94 22 9 C20.02 9 18.04 9 16 9 C16 13.95 16 18.9 16 24 C17.98 24 19.96 24 22 24 C22 26.97 22 29.94 22 33 C14.74 33 7.48 33 0 33 C0 30.03 0 27.06 0 24 C1.98 24 3.96 24 6 24 C6 19.05 6 14.1 6 9 C4.02 9 2.04 9 0 9 C0 6.03 0 3.06 0 0 Z " fill="#FAFDFD" transform="translate(349,351)"/>
<path d="M0 0 C7.26 0 14.52 0 22 0 C22 2.97 22 5.94 22 9 C20.02 9 18.04 9 16 9 C16 13.95 16 18.9 16 24 C17.98 24 19.96 24 22 24 C22 26.97 22 29.94 22 33 C14.74 33 7.48 33 0 33 C0 30.03 0 27.06 0 24 C1.98 24 3.96 24 6 24 C6 19.05 6 14.1 6 9 C4.02 9 2.04 9 0 9 C0 6.03 0 3.06 0 0 Z " fill="#FAFDFD" transform="translate(235,351)"/>
<path d="M0 0 C1.084021 0.00523682 2.16804199 0.01047363 3.28491211 0.01586914 C5.03964844 0.02070313 5.03964844 0.02070313 6.82983398 0.02563477 C8.67738281 0.03820312 8.67738281 0.03820312 10.56225586 0.05102539 C12.41560547 0.05779297 12.41560547 0.05779297 14.30639648 0.06469727 C17.37089703 0.07652931 20.43530307 0.09301366 23.49975586 0.11352539 C23.49975586 3.08352539 23.49975586 6.05352539 23.49975586 9.11352539 C20.85975586 9.11352539 18.21975586 9.11352539 15.49975586 9.11352539 C15.49975586 17.03352539 15.49975586 24.95352539 15.49975586 33.11352539 C11.86975586 33.11352539 8.23975586 33.11352539 4.49975586 33.11352539 C4.49975586 25.19352539 4.49975586 17.27352539 4.49975586 9.11352539 C1.85975586 9.11352539 -0.78024414 9.11352539 -3.50024414 9.11352539 C-3.59790039 2.96118164 -3.59790039 2.96118164 -3.50024414 1.11352539 C-2.50024414 0.11352539 -2.50024414 0.11352539 0 0 Z " fill="#F8FCFC" transform="translate(186.500244140625,404.886474609375)"/>
<path d="M0 0 C2.31 0 4.62 0 7 0 C7.33 1.65 7.66 3.3 8 5 C5.36 5 2.72 5 0 5 C0 3.35 0 1.7 0 0 Z " fill="#4DC0C2" transform="translate(172,371)"/>
<path d="M0 0 C1.65 0 3.3 0 5 0 C5.5625 1.9375 5.5625 1.9375 6 4 C5 5 5 5 2.4375 5.0625 C1.2309375 5.0315625 1.2309375 5.0315625 0 5 C0 3.35 0 1.7 0 0 Z " fill="#54C2C4" transform="translate(172,359)"/>
</svg>
